# xmcd CD database file
#
# Track frame offsets:
#	182
#	12435
#	27275
#	40660
#	53025
#	66960
#	80432
#	95055
#	109185
#	121055
#	133047
#	146040
#	161015
#	178515
#
# Disc length: 2589 seconds
#
# Revision: 0
# Processed by: cddbd v1.5.1PL0 Copyright (c) Steve Scherf et al.
# Submitted via: CDex 1.51
#
DISCID=bc0a1b0e
DTITLE=Muddy Waters - Chicago Blues
DYEAR=1900
DGENRE=Blues
TTITLE0=Walking thru The Oark
TTITLE1=Still a Fool
TTITLE2=You Can't Lose What You Ain't Never Had
TTITLE3=I Can't Be Satisfied
TTITLE4=I Want You To Love Me
TTITLE5=Rolling and Tumbling
TTITLE6=Just To Be With You
TTITLE7=You're Gonna Need My Help
TTITLE8=The Same Thing
TTITLE9=My Life is Ruined
TTITLE10=Baby Please Don't Go
TTITLE11=I Got My Mojo Working
TTITLE12=Feel Like Going Home
TTITLE13=Long Distance
EXTD=
EXTT0=
EXTT1=
EXTT2=
EXTT3=
EXTT4=
EXTT5=
EXTT6=
EXTT7=
EXTT8=
EXTT9=
EXTT10=
EXTT11=
EXTT12=
EXTT13=
PLAYORDER=
